<?xml version="1.0" encoding="UTF-8" standalone="no"?>
<svg
   viewBox="0 0 2381.103 1122.5197"
   width="2381.103"
   height="1122.5197"
   version="1.1"
   id="svg1029"
   sodipodi:docname="šablona_pro_šrouby.svg"
   inkscape:version="1.2.1 (9c6d41e410, 2022-07-14)"
   xmlns:inkscape="http://www.inkscape.org/namespaces/inkscape"
   xmlns:sodipodi="http://sodipodi.sourceforge.net/DTD/sodipodi-0.dtd"
   xmlns:xlink="http://www.w3.org/1999/xlink"
   xmlns="http://www.w3.org/2000/svg"
   xmlns:svg="http://www.w3.org/2000/svg">
  <sodipodi:namedview
     id="namedview1031"
     pagecolor="#ffffff"
     bordercolor="#000000"
     borderopacity="0.25"
     inkscape:showpageshadow="2"
     inkscape:pageopacity="0.0"
     inkscape:pagecheckerboard="0"
     inkscape:deskcolor="#d1d1d1"
     showgrid="false"
     inkscape:zoom="0.13811176"
     inkscape:cx="-944.88697"
     inkscape:cy="1933.217"
     inkscape:window-width="1858"
     inkscape:window-height="1057"
     inkscape:window-x="1912"
     inkscape:window-y="-8"
     inkscape:window-maximized="1"
     inkscape:current-layer="g1027" />
  <desc
     id="desc2">šablona_pro_šrouby.DXF - scale = 1.000000, origin = (0.000000, 0.000000), method = manual</desc>
  <defs
     id="defs289">
    <marker
       id="DistanceX"
       orient="auto"
       refX="0"
       refY="0"
       style="overflow:visible">
      <path
         d="M 3,-3 -3,3 M 0,-5 V 5"
         style="stroke:#000000;stroke-width:0.5"
         id="path4" />
    </marker>
    <pattern
       id="Hatch"
       patternUnits="userSpaceOnUse"
       width="8"
       height="8"
       x="0"
       y="0">
      <path
         d="M8 4 l-4,4"
         stroke="#000000"
         stroke-width="0.25"
         linecap="square"
         id="path7" />
      <path
         d="M6 2 l-4,4"
         stroke="#000000"
         stroke-width="0.25"
         linecap="square"
         id="path9" />
      <path
         d="M4 0 l-4,4"
         stroke="#000000"
         stroke-width="0.25"
         linecap="square"
         id="path11" />
    </pattern>
    <symbol
       id="*Model_Space" />
    <symbol
       id="*Paper_Space" />
    <symbol
       id="*Paper_Space0" />
    <symbol
       id="SW_CENTERMARKSYMBOL_0">
      <path
         style="fill:none;stroke:#000000;stroke-linecap:round"
         d="m 0,1122.52 v -9.45"
         id="path17" />
      <path
         style="fill:none;stroke:#000000;stroke-linecap:round"
         d="M 0,1122.52 H -9.44882"
         id="path19" />
      <path
         style="fill:none;stroke:#000000;stroke-linecap:round"
         d="m 0,1122.52 v 9.45"
         id="path21" />
      <path
         style="fill:none;stroke:#000000;stroke-linecap:round"
         d="M 0,1122.52 H 9.44882"
         id="path23" />
      <path
         style="fill:none;stroke:#000000;stroke-linecap:round"
         d="m 0,1113.07 v -6.99"
         id="path25" />
      <path
         style="fill:none;stroke:#000000;stroke-linecap:round"
         d="M -9.44882,1122.52 H -16.4409"
         id="path27" />
      <path
         style="fill:none;stroke:#000000;stroke-linecap:round"
         d="m 0,1131.97 v 6.99"
         id="path29" />
      <path
         style="fill:none;stroke:#000000;stroke-linecap:round"
         d="M 9.44882,1122.52 H 16.4409"
         id="path31" />
    </symbol>
    <symbol
       id="SW_CENTERMARKSYMBOL_1">
      <path
         style="fill:none;stroke:#000000;stroke-linecap:round"
         d="m 0,1122.52 v -9.45"
         id="path34" />
      <path
         style="fill:none;stroke:#000000;stroke-linecap:round"
         d="M 0,1122.52 H -9.44882"
         id="path36" />
      <path
         style="fill:none;stroke:#000000;stroke-linecap:round"
         d="m 0,1122.52 v 9.45"
         id="path38" />
      <path
         style="fill:none;stroke:#000000;stroke-linecap:round"
         d="M 0,1122.52 H 9.44882"
         id="path40" />
      <path
         style="fill:none;stroke:#000000;stroke-linecap:round"
         d="m 0,1113.07 v -6.99"
         id="path42" />
      <path
         style="fill:none;stroke:#000000;stroke-linecap:round"
         d="M -9.44882,1122.52 H -16.4409"
         id="path44" />
      <path
         style="fill:none;stroke:#000000;stroke-linecap:round"
         d="m 0,1131.97 v 6.99"
         id="path46" />
      <path
         style="fill:none;stroke:#000000;stroke-linecap:round"
         d="M 9.44882,1122.52 H 16.4409"
         id="path48" />
    </symbol>
    <symbol
       id="SW_CENTERMARKSYMBOL_2">
      <path
         style="fill:none;stroke:#000000;stroke-linecap:round"
         d="m 0,1122.52 v -9.45"
         id="path51" />
      <path
         style="fill:none;stroke:#000000;stroke-linecap:round"
         d="M 0,1122.52 H -9.44882"
         id="path53" />
      <path
         style="fill:none;stroke:#000000;stroke-linecap:round"
         d="m 0,1122.52 v 9.45"
         id="path55" />
      <path
         style="fill:none;stroke:#000000;stroke-linecap:round"
         d="M 0,1122.52 H 9.44882"
         id="path57" />
      <path
         style="fill:none;stroke:#000000;stroke-linecap:round"
         d="m 0,1113.07 v -6.99"
         id="path59" />
      <path
         style="fill:none;stroke:#000000;stroke-linecap:round"
         d="M -9.44882,1122.52 H -16.4409"
         id="path61" />
      <path
         style="fill:none;stroke:#000000;stroke-linecap:round"
         d="m 0,1131.97 v 6.99"
         id="path63" />
      <path
         style="fill:none;stroke:#000000;stroke-linecap:round"
         d="M 9.44882,1122.52 H 16.4409"
         id="path65" />
    </symbol>
    <symbol
       id="SW_CENTERMARKSYMBOL_3">
      <path
         style="fill:none;stroke:#000000;stroke-linecap:round"
         d="m 0,1122.52 v -9.45"
         id="path68" />
      <path
         style="fill:none;stroke:#000000;stroke-linecap:round"
         d="M 0,1122.52 H -9.44882"
         id="path70" />
      <path
         style="fill:none;stroke:#000000;stroke-linecap:round"
         d="m 0,1122.52 v 9.45"
         id="path72" />
      <path
         style="fill:none;stroke:#000000;stroke-linecap:round"
         d="M 0,1122.52 H 9.44882"
         id="path74" />
      <path
         style="fill:none;stroke:#000000;stroke-linecap:round"
         d="m 0,1113.07 v -6.99"
         id="path76" />
      <path
         style="fill:none;stroke:#000000;stroke-linecap:round"
         d="M -9.44882,1122.52 H -16.4409"
         id="path78" />
      <path
         style="fill:none;stroke:#000000;stroke-linecap:round"
         d="m 0,1131.97 v 6.99"
         id="path80" />
      <path
         style="fill:none;stroke:#000000;stroke-linecap:round"
         d="M 9.44882,1122.52 H 16.4409"
         id="path82" />
    </symbol>
    <symbol
       id="SW_CENTERMARKSYMBOL_4">
      <path
         style="fill:none;stroke:#000000;stroke-linecap:round"
         d="m 0,1122.52 v -9.45"
         id="path85" />
      <path
         style="fill:none;stroke:#000000;stroke-linecap:round"
         d="M 0,1122.52 H -9.44882"
         id="path87" />
      <path
         style="fill:none;stroke:#000000;stroke-linecap:round"
         d="m 0,1122.52 v 9.45"
         id="path89" />
      <path
         style="fill:none;stroke:#000000;stroke-linecap:round"
         d="M 0,1122.52 H 9.44882"
         id="path91" />
      <path
         style="fill:none;stroke:#000000;stroke-linecap:round"
         d="m 0,1113.07 v -6.99"
         id="path93" />
      <path
         style="fill:none;stroke:#000000;stroke-linecap:round"
         d="M -9.44882,1122.52 H -16.4409"
         id="path95" />
      <path
         style="fill:none;stroke:#000000;stroke-linecap:round"
         d="m 0,1131.97 v 6.99"
         id="path97" />
      <path
         style="fill:none;stroke:#000000;stroke-linecap:round"
         d="M 9.44882,1122.52 H 16.4409"
         id="path99" />
    </symbol>
    <symbol
       id="SW_CENTERMARKSYMBOL_5">
      <path
         style="fill:none;stroke:#000000;stroke-linecap:round"
         d="m 0,1122.52 v -9.45"
         id="path102" />
      <path
         style="fill:none;stroke:#000000;stroke-linecap:round"
         d="M 0,1122.52 H -9.44882"
         id="path104" />
      <path
         style="fill:none;stroke:#000000;stroke-linecap:round"
         d="m 0,1122.52 v 9.45"
         id="path106" />
      <path
         style="fill:none;stroke:#000000;stroke-linecap:round"
         d="M 0,1122.52 H 9.44882"
         id="path108" />
      <path
         style="fill:none;stroke:#000000;stroke-linecap:round"
         d="m 0,1113.07 v -6.99"
         id="path110" />
      <path
         style="fill:none;stroke:#000000;stroke-linecap:round"
         d="M -9.44882,1122.52 H -16.4409"
         id="path112" />
      <path
         style="fill:none;stroke:#000000;stroke-linecap:round"
         d="m 0,1131.97 v 6.99"
         id="path114" />
      <path
         style="fill:none;stroke:#000000;stroke-linecap:round"
         d="M 9.44882,1122.52 H 16.4409"
         id="path116" />
    </symbol>
    <symbol
       id="SW_CENTERMARKSYMBOL_6">
      <path
         style="fill:none;stroke:#000000;stroke-linecap:round"
         d="m 0,1122.52 v -9.45"
         id="path119" />
      <path
         style="fill:none;stroke:#000000;stroke-linecap:round"
         d="M 0,1122.52 H -9.44882"
         id="path121" />
      <path
         style="fill:none;stroke:#000000;stroke-linecap:round"
         d="m 0,1122.52 v 9.45"
         id="path123" />
      <path
         style="fill:none;stroke:#000000;stroke-linecap:round"
         d="M 0,1122.52 H 9.44882"
         id="path125" />
      <path
         style="fill:none;stroke:#000000;stroke-linecap:round"
         d="m 0,1113.07 v -6.99"
         id="path127" />
      <path
         style="fill:none;stroke:#000000;stroke-linecap:round"
         d="M -9.44882,1122.52 H -16.4409"
         id="path129" />
      <path
         style="fill:none;stroke:#000000;stroke-linecap:round"
         d="m 0,1131.97 v 6.99"
         id="path131" />
      <path
         style="fill:none;stroke:#000000;stroke-linecap:round"
         d="M 9.44882,1122.52 H 16.4409"
         id="path133" />
    </symbol>
    <symbol
       id="SW_CENTERMARKSYMBOL_7">
      <path
         style="fill:none;stroke:#000000;stroke-linecap:round"
         d="m 0,1122.52 v -9.45"
         id="path136" />
      <path
         style="fill:none;stroke:#000000;stroke-linecap:round"
         d="M 0,1122.52 H -9.44882"
         id="path138" />
      <path
         style="fill:none;stroke:#000000;stroke-linecap:round"
         d="m 0,1122.52 v 9.45"
         id="path140" />
      <path
         style="fill:none;stroke:#000000;stroke-linecap:round"
         d="M 0,1122.52 H 9.44882"
         id="path142" />
      <path
         style="fill:none;stroke:#000000;stroke-linecap:round"
         d="m 0,1113.07 v -6.99"
         id="path144" />
      <path
         style="fill:none;stroke:#000000;stroke-linecap:round"
         d="M -9.44882,1122.52 H -16.4409"
         id="path146" />
      <path
         style="fill:none;stroke:#000000;stroke-linecap:round"
         d="m 0,1131.97 v 6.99"
         id="path148" />
      <path
         style="fill:none;stroke:#000000;stroke-linecap:round"
         d="M 9.44882,1122.52 H 16.4409"
         id="path150" />
    </symbol>
    <symbol
       id="SW_CENTERMARKSYMBOL_8">
      <path
         style="fill:none;stroke:#000000;stroke-linecap:round"
         d="m 0,1122.52 v -9.45"
         id="path153" />
      <path
         style="fill:none;stroke:#000000;stroke-linecap:round"
         d="M 0,1122.52 H -9.44882"
         id="path155" />
      <path
         style="fill:none;stroke:#000000;stroke-linecap:round"
         d="m 0,1122.52 v 9.45"
         id="path157" />
      <path
         style="fill:none;stroke:#000000;stroke-linecap:round"
         d="M 0,1122.52 H 9.44882"
         id="path159" />
      <path
         style="fill:none;stroke:#000000;stroke-linecap:round"
         d="m 0,1113.07 v -6.99"
         id="path161" />
      <path
         style="fill:none;stroke:#000000;stroke-linecap:round"
         d="M -9.44882,1122.52 H -16.4409"
         id="path163" />
      <path
         style="fill:none;stroke:#000000;stroke-linecap:round"
         d="m 0,1131.97 v 6.99"
         id="path165" />
      <path
         style="fill:none;stroke:#000000;stroke-linecap:round"
         d="M 9.44882,1122.52 H 16.4409"
         id="path167" />
    </symbol>
    <symbol
       id="SW_CENTERMARKSYMBOL_9">
      <path
         style="fill:none;stroke:#000000;stroke-linecap:round"
         d="m 0,1122.52 v -9.45"
         id="path170" />
      <path
         style="fill:none;stroke:#000000;stroke-linecap:round"
         d="M 0,1122.52 H -9.44882"
         id="path172" />
      <path
         style="fill:none;stroke:#000000;stroke-linecap:round"
         d="m 0,1122.52 v 9.45"
         id="path174" />
      <path
         style="fill:none;stroke:#000000;stroke-linecap:round"
         d="M 0,1122.52 H 9.44882"
         id="path176" />
      <path
         style="fill:none;stroke:#000000;stroke-linecap:round"
         d="m 0,1113.07 v -6.99"
         id="path178" />
      <path
         style="fill:none;stroke:#000000;stroke-linecap:round"
         d="M -9.44882,1122.52 H -16.4409"
         id="path180" />
      <path
         style="fill:none;stroke:#000000;stroke-linecap:round"
         d="m 0,1131.97 v 6.99"
         id="path182" />
      <path
         style="fill:none;stroke:#000000;stroke-linecap:round"
         d="M 9.44882,1122.52 H 16.4409"
         id="path184" />
    </symbol>
    <symbol
       id="SW_CENTERMARKSYMBOL_10">
      <path
         style="fill:none;stroke:#000000;stroke-linecap:round"
         d="m 0,1122.52 v -9.45"
         id="path187" />
      <path
         style="fill:none;stroke:#000000;stroke-linecap:round"
         d="M 0,1122.52 H -9.44882"
         id="path189" />
      <path
         style="fill:none;stroke:#000000;stroke-linecap:round"
         d="m 0,1122.52 v 9.45"
         id="path191" />
      <path
         style="fill:none;stroke:#000000;stroke-linecap:round"
         d="M 0,1122.52 H 9.44882"
         id="path193" />
      <path
         style="fill:none;stroke:#000000;stroke-linecap:round"
         d="m 0,1113.07 v -6.99"
         id="path195" />
      <path
         style="fill:none;stroke:#000000;stroke-linecap:round"
         d="M -9.44882,1122.52 H -16.4409"
         id="path197" />
      <path
         style="fill:none;stroke:#000000;stroke-linecap:round"
         d="m 0,1131.97 v 6.99"
         id="path199" />
      <path
         style="fill:none;stroke:#000000;stroke-linecap:round"
         d="M 9.44882,1122.52 H 16.4409"
         id="path201" />
    </symbol>
    <symbol
       id="SW_CENTERMARKSYMBOL_11">
      <path
         style="fill:none;stroke:#000000;stroke-linecap:round"
         d="m 0,1122.52 v -9.45"
         id="path204" />
      <path
         style="fill:none;stroke:#000000;stroke-linecap:round"
         d="M 0,1122.52 H -9.44882"
         id="path206" />
      <path
         style="fill:none;stroke:#000000;stroke-linecap:round"
         d="m 0,1122.52 v 9.45"
         id="path208" />
      <path
         style="fill:none;stroke:#000000;stroke-linecap:round"
         d="M 0,1122.52 H 9.44882"
         id="path210" />
      <path
         style="fill:none;stroke:#000000;stroke-linecap:round"
         d="m 0,1113.07 v -6.99"
         id="path212" />
      <path
         style="fill:none;stroke:#000000;stroke-linecap:round"
         d="M -9.44882,1122.52 H -16.4409"
         id="path214" />
      <path
         style="fill:none;stroke:#000000;stroke-linecap:round"
         d="m 0,1131.97 v 6.99"
         id="path216" />
      <path
         style="fill:none;stroke:#000000;stroke-linecap:round"
         d="M 9.44882,1122.52 H 16.4409"
         id="path218" />
    </symbol>
    <symbol
       id="SW_CENTERMARKSYMBOL_12">
      <path
         style="fill:none;stroke:#000000;stroke-linecap:round"
         d="m 0,1122.52 v -9.45"
         id="path221" />
      <path
         style="fill:none;stroke:#000000;stroke-linecap:round"
         d="M 0,1122.52 H -9.44882"
         id="path223" />
      <path
         style="fill:none;stroke:#000000;stroke-linecap:round"
         d="m 0,1122.52 v 9.45"
         id="path225" />
      <path
         style="fill:none;stroke:#000000;stroke-linecap:round"
         d="M 0,1122.52 H 9.44882"
         id="path227" />
      <path
         style="fill:none;stroke:#000000;stroke-linecap:round"
         d="m 0,1113.07 v -6.99"
         id="path229" />
      <path
         style="fill:none;stroke:#000000;stroke-linecap:round"
         d="M -9.44882,1122.52 H -16.4409"
         id="path231" />
      <path
         style="fill:none;stroke:#000000;stroke-linecap:round"
         d="m 0,1131.97 v 6.99"
         id="path233" />
      <path
         style="fill:none;stroke:#000000;stroke-linecap:round"
         d="M 9.44882,1122.52 H 16.4409"
         id="path235" />
    </symbol>
    <symbol
       id="SW_CENTERMARKSYMBOL_13">
      <path
         style="fill:none;stroke:#000000;stroke-linecap:round"
         d="m 0,1122.52 v -9.45"
         id="path238" />
      <path
         style="fill:none;stroke:#000000;stroke-linecap:round"
         d="M 0,1122.52 H -9.44882"
         id="path240" />
      <path
         style="fill:none;stroke:#000000;stroke-linecap:round"
         d="m 0,1122.52 v 9.45"
         id="path242" />
      <path
         style="fill:none;stroke:#000000;stroke-linecap:round"
         d="M 0,1122.52 H 9.44882"
         id="path244" />
      <path
         style="fill:none;stroke:#000000;stroke-linecap:round"
         d="m 0,1113.07 v -6.99"
         id="path246" />
      <path
         style="fill:none;stroke:#000000;stroke-linecap:round"
         d="M -9.44882,1122.52 H -16.4409"
         id="path248" />
      <path
         style="fill:none;stroke:#000000;stroke-linecap:round"
         d="m 0,1131.97 v 6.99"
         id="path250" />
      <path
         style="fill:none;stroke:#000000;stroke-linecap:round"
         d="M 9.44882,1122.52 H 16.4409"
         id="path252" />
    </symbol>
    <symbol
       id="SW_CENTERMARKSYMBOL_14">
      <path
         style="fill:none;stroke:#000000;stroke-linecap:round"
         d="m 0,1122.52 v -9.45"
         id="path255" />
      <path
         style="fill:none;stroke:#000000;stroke-linecap:round"
         d="M 0,1122.52 H -9.44882"
         id="path257" />
      <path
         style="fill:none;stroke:#000000;stroke-linecap:round"
         d="m 0,1122.52 v 9.45"
         id="path259" />
      <path
         style="fill:none;stroke:#000000;stroke-linecap:round"
         d="M 0,1122.52 H 9.44882"
         id="path261" />
      <path
         style="fill:none;stroke:#000000;stroke-linecap:round"
         d="m 0,1113.07 v -6.99"
         id="path263" />
      <path
         style="fill:none;stroke:#000000;stroke-linecap:round"
         d="M -9.44882,1122.52 H -16.4409"
         id="path265" />
      <path
         style="fill:none;stroke:#000000;stroke-linecap:round"
         d="m 0,1131.97 v 6.99"
         id="path267" />
      <path
         style="fill:none;stroke:#000000;stroke-linecap:round"
         d="M 9.44882,1122.52 H 16.4409"
         id="path269" />
    </symbol>
    <symbol
       id="SW_CENTERMARKSYMBOL_15">
      <path
         style="fill:none;stroke:#000000;stroke-linecap:round"
         d="m 0,1122.52 v -9.45"
         id="path272" />
      <path
         style="fill:none;stroke:#000000;stroke-linecap:round"
         d="M 0,1122.52 H -9.44882"
         id="path274" />
      <path
         style="fill:none;stroke:#000000;stroke-linecap:round"
         d="m 0,1122.52 v 9.45"
         id="path276" />
      <path
         style="fill:none;stroke:#000000;stroke-linecap:round"
         d="M 0,1122.52 H 9.44882"
         id="path278" />
      <path
         style="fill:none;stroke:#000000;stroke-linecap:round"
         d="m 0,1113.07 v -6.99"
         id="path280" />
      <path
         style="fill:none;stroke:#000000;stroke-linecap:round"
         d="M -9.44882,1122.52 H -16.4409"
         id="path282" />
      <path
         style="fill:none;stroke:#000000;stroke-linecap:round"
         d="m 0,1131.97 v 6.99"
         id="path284" />
      <path
         style="fill:none;stroke:#000000;stroke-linecap:round"
         d="M 9.44882,1122.52 H 16.4409"
         id="path286" />
    </symbol>
  </defs>
  <g
     inkscape:groupmode="layer"
     inkscape:label="0"
     id="g1025" />
  <g
     inkscape:groupmode="layer"
     inkscape:label="FORMAT"
     id="g1027">
    <path
       d="m 386.00053,957.02909 a 6.992126,6.992126 0 0 0 -13.9842,0 6.992126,6.992126 0 0 0 13.9842,0 z"
       style="fill:none;stroke:#000000;stroke-width:3.571;stroke-linecap:round"
       id="path945-9" />
    <path
       d="m 2044.0793,163.32835 a 6.99215,6.99215 0 0 0 -13.9843,0 6.99215,6.99215 0 0 0 13.9843,0 z"
       style="fill:none;stroke:#000000;stroke-width:3.571;stroke-linecap:round"
       id="path947-9" />
    <path
       d="m 1796.3312,163.32835 a 6.992126,6.992126 0 0 0 -13.9842,0 6.992126,6.992126 0 0 0 13.9842,0 z"
       style="fill:none;stroke:#000000;stroke-width:3.571;stroke-linecap:round"
       id="path949-7" />
    <path
       d="m 1768.7407,163.32835 a 6.99215,6.99215 0 0 0 -13.9843,0 6.99215,6.99215 0 0 0 13.9843,0 z"
       style="fill:none;stroke:#000000;stroke-width:3.571;stroke-linecap:round"
       id="path951-3" />
    <path
       d="m 1228.8352,163.32835 a 6.99215,6.99215 0 0 0 -13.9843,0 6.99215,6.99215 0 0 0 13.9843,0 z"
       style="fill:none;stroke:#000000;stroke-width:3.571;stroke-linecap:round"
       id="path953-8" />
    <path
       d="m 1201.2446,163.32835 a 6.992126,6.992126 0 0 0 -13.9842,0 6.992126,6.992126 0 0 0 13.9842,0 z"
       style="fill:none;stroke:#000000;stroke-width:3.571;stroke-linecap:round"
       id="path955-4" />
    <path
       d="m 661.33909,163.32835 a 6.992126,6.992126 0 0 0 -13.9842,0 6.992126,6.992126 0 0 0 13.9842,0 z"
       style="fill:none;stroke:#000000;stroke-width:3.571;stroke-linecap:round"
       id="path957-7" />
    <path
       d="m 633.74859,163.32835 a 6.99215,6.99215 0 0 0 -13.9843,0 6.99215,6.99215 0 0 0 13.9843,0 z"
       style="fill:none;stroke:#000000;stroke-width:3.571;stroke-linecap:round"
       id="path959-0" />
    <path
       d="m 633.74859,957.02909 a 6.99215,6.99215 0 0 0 -13.9843,0 6.99215,6.99215 0 0 0 13.9843,0 z"
       style="fill:none;stroke:#000000;stroke-width:3.571;stroke-linecap:round"
       id="path961-1" />
    <path
       d="m 661.33909,957.02909 a 6.992126,6.992126 0 0 0 -13.9842,0 6.992126,6.992126 0 0 0 13.9842,0 z"
       style="fill:none;stroke:#000000;stroke-width:3.571;stroke-linecap:round"
       id="path963-4" />
    <path
       d="m 1201.2446,957.02909 a 6.992126,6.992126 0 0 0 -13.9842,0 6.992126,6.992126 0 0 0 13.9842,0 z"
       style="fill:none;stroke:#000000;stroke-width:3.571;stroke-linecap:round"
       id="path965-6" />
    <path
       d="m 1228.8352,957.02909 a 6.99215,6.99215 0 0 0 -13.9843,0 6.99215,6.99215 0 0 0 13.9843,0 z"
       style="fill:none;stroke:#000000;stroke-width:3.571;stroke-linecap:round"
       id="path967-7" />
    <path
       d="m 386.00053,163.32835 a 6.992126,6.992126 0 0 0 -13.9842,0 6.992126,6.992126 0 0 0 13.9842,0 z"
       style="fill:none;stroke:#000000;stroke-width:3.571;stroke-linecap:round"
       id="path969-7" />
    <path
       d="m 2044.0793,957.02909 a 6.99215,6.99215 0 0 0 -13.9843,0 6.99215,6.99215 0 0 0 13.9843,0 z"
       style="fill:none;stroke:#000000;stroke-width:3.571;stroke-linecap:round"
       id="path971-8" />
    <path
       d="m 1796.3312,957.02909 a 6.992126,6.992126 0 0 0 -13.9842,0 6.992126,6.992126 0 0 0 13.9842,0 z"
       style="fill:none;stroke:#000000;stroke-width:3.571;stroke-linecap:round"
       id="path973-8" />
    <path
       d="m 1768.7407,957.02909 a 6.99215,6.99215 0 0 0 -13.9843,0 6.99215,6.99215 0 0 0 13.9843,0 z"
       style="fill:none;stroke:#000000;stroke-width:3.571;stroke-linecap:round"
       id="path975-2" />
    <path
       style="fill:none;stroke:#000000;stroke-width:3.571;stroke-linecap:round"
       d="M 2341.9033,148.21365 H 74.193327"
       id="path977-7" />
    <path
       style="fill:none;stroke:#000000;stroke-width:3.571;stroke-linecap:round"
       d="M 2341.9033,972.14763 V 148.21365"
       id="path979-2" />
    <path
       style="fill:none;stroke:#000000;stroke-width:3.571;stroke-linecap:round"
       d="M 74.193327,972.14763 H 2341.9033"
       id="path981-2" />
    <path
       style="fill:none;stroke:#000000;stroke-width:3.571;stroke-linecap:round"
       d="M 74.193327,148.21365 V 972.14763"
       id="path983-2" />
    <use
       xlink:href="#SW_CENTERMARKSYMBOL_0"
       style="stroke-width:0.5px"
       transform="translate(379.01333,-165.48635)"
       id="use985-8" />
    <use
       xlink:href="#SW_CENTERMARKSYMBOL_1"
       style="stroke-width:0.5px"
       transform="translate(2037.0833,-959.19635)"
       id="use987-2" />
    <use
       xlink:href="#SW_CENTERMARKSYMBOL_2"
       style="stroke-width:0.5px"
       transform="translate(1789.3433,-959.19635)"
       id="use989-0" />
    <use
       xlink:href="#SW_CENTERMARKSYMBOL_3"
       style="stroke-width:0.5px"
       transform="translate(1761.7533,-959.19635)"
       id="use991-5" />
    <use
       xlink:href="#SW_CENTERMARKSYMBOL_4"
       style="stroke-width:0.5px"
       transform="translate(1221.8433,-959.19635)"
       id="use993-0" />
    <use
       xlink:href="#SW_CENTERMARKSYMBOL_5"
       style="stroke-width:0.5px"
       transform="translate(1194.2533,-959.19635)"
       id="use995-7" />
    <use
       xlink:href="#SW_CENTERMARKSYMBOL_6"
       style="stroke-width:0.5px"
       transform="translate(654.34329,-959.19635)"
       id="use997-9" />
    <use
       xlink:href="#SW_CENTERMARKSYMBOL_7"
       style="stroke-width:0.5px"
       transform="translate(626.75329,-959.19635)"
       id="use999-3" />
    <use
       xlink:href="#SW_CENTERMARKSYMBOL_8"
       style="stroke-width:0.5px"
       transform="translate(626.75329,-165.48635)"
       id="use1001-2" />
    <use
       xlink:href="#SW_CENTERMARKSYMBOL_9"
       style="stroke-width:0.5px"
       transform="translate(654.34329,-165.48635)"
       id="use1003-2" />
    <use
       xlink:href="#SW_CENTERMARKSYMBOL_10"
       style="stroke-width:0.5px"
       transform="translate(1194.2533,-165.48635)"
       id="use1005-9" />
    <use
       xlink:href="#SW_CENTERMARKSYMBOL_11"
       style="stroke-width:0.5px"
       transform="translate(1221.8433,-165.48635)"
       id="use1007-0" />
    <use
       xlink:href="#SW_CENTERMARKSYMBOL_12"
       style="stroke-width:0.5px"
       transform="translate(379.01333,-959.19635)"
       id="use1009-7" />
    <use
       xlink:href="#SW_CENTERMARKSYMBOL_13"
       style="stroke-width:0.5px"
       transform="translate(2037.0833,-165.48635)"
       id="use1011-4" />
    <use
       xlink:href="#SW_CENTERMARKSYMBOL_14"
       style="stroke-width:0.5px"
       transform="translate(1789.3433,-165.48635)"
       id="use1013-1" />
    <use
       xlink:href="#SW_CENTERMARKSYMBOL_15"
       style="stroke-width:0.5px"
       transform="translate(1761.7533,-165.48635)"
       id="use1015-8" />
  </g>
</svg>
